<?xml version="1.0" standalone="no"?>
<!DOCTYPE svg PUBLIC "-//W3C//DTD SVG 20010904//EN"
 "http://www.w3.org/TR/2001/REC-SVG-20010904/DTD/svg10.dtd">
<svg version="1.0" xmlns="http://www.w3.org/2000/svg"
 width="500.000000pt" height="500.000000pt" viewBox="0 0 500.000000 500.000000"
 preserveAspectRatio="xMidYMid meet">

<g transform="translate(0.000000,500.000000) scale(0.100000,-0.100000)"
fill="#000000" stroke="none">
<path d="M0 2500 l0 -2500 2500 0 2500 0 0 2500 0 2500 -2500 0 -2500 0 0
-2500z m2580 1989 c43 -9 1389 -640 1496 -700 65 -37 119 -96 153 -168 l26
-56 0 -940 0 -940 -33 -67 c-59 -121 -51 -116 -851 -496 -397 -188 -747 -349
-778 -357 -73 -19 -116 -19 -184 1 -50 15 -1264 584 -1442 676 -93 49 -165
123 -199 206 l-23 57 0 930 0 930 23 49 c30 65 75 120 128 156 54 38 1473 708
1523 719 50 12 108 12 161 0z"/>
<path d="M2440 4400 c-61 -15 -1466 -685 -1508 -719 -24 -19 -52 -55 -69 -89
l-28 -57 0 -910 0 -910 24 -48 c47 -95 63 -104 832 -468 394 -187 737 -343
762 -348 25 -4 67 -5 94 0 31 5 304 129 773 350 642 304 730 349 771 389 83
83 79 25 79 1035 0 1002 4 951 -74 1029 -52 52 -77 71 -102 78 -10 3 -332 155
-715 337 -738 350 -748 354 -839 331z m425 -781 c256 -55 466 -168 628 -338
88 -93 152 -190 191 -287 41 -107 51 -163 50 -299 0 -106 -4 -144 -23 -205
-83 -273 -302 -504 -593 -626 -142 -60 -329 -105 -428 -103 -47 1 -40 3 45 14
280 34 524 142 700 307 131 124 196 219 248 363 129 361 -27 754 -395 992
-153 99 -319 158 -530 188 -132 19 -227 19 -364 0 -290 -39 -502 -134 -690
-308 -169 -157 -246 -304 -285 -541 l-18 -111 6 85 c29 429 396 781 918 879
90 17 137 19 295 15 100 -2 177 -10 245 -25z m-252 -213 c9 -5 17 -19 17 -33
0 -13 -70 -203 -156 -421 -85 -218 -170 -434 -187 -479 l-31 -82 -80 -3 -80
-3 -26 -87 c-14 -48 -29 -92 -35 -97 -16 -15 -299 -18 -322 -3 -12 8 13 95 86
292 11 30 35 98 54 150 65 177 199 545 229 625 17 44 33 90 35 103 7 27 12 31
65 42 51 10 406 7 431 -4z m446 -145 c185 -58 282 -194 268 -379 -9 -129 -30
-176 -113 -259 l-73 -72 83 -173 c105 -219 126 -265 126 -278 0 -7 -60 -10
-177 -8 l-178 3 -52 130 c-111 281 -107 275 -210 275 l-56 0 8 -157 c4 -87 8
-178 9 -203 l1 -45 -175 0 -175 0 1 152 2 152 172 440 c200 509 154 452 357
445 81 -3 143 -11 182 -23z m-1599 -811 c102 -303 396 -548 769 -641 64 -16
181 -35 261 -43 l145 -15 -120 5 c-332 16 -627 133 -833 333 -136 132 -212
261 -257 441 -8 30 -14 73 -14 95 1 30 4 22 14 -35 7 -41 23 -104 35 -140z
m1812 -752 c-7 -7 -12 -8 -12 -2 0 14 12 26 19 19 2 -3 -1 -11 -7 -17z m-1863
-96 c11 -29 16 -52 11 -52 -6 0 -10 7 -10 15 0 10 -11 15 -35 15 -24 0 -35 -5
-35 -15 0 -8 -4 -15 -10 -15 -5 0 0 24 11 53 12 28 24 58 27 66 6 16 12 8 41
-67z m119 -45 c25 -4 24 -4 -5 -6 l-33 -1 2 68 2 67 3 -62 c4 -58 5 -62 31
-66z m152 113 c0 -5 -13 -10 -30 -10 -23 0 -30 -4 -30 -20 0 -16 7 -20 33 -22
l32 -1 -32 -4 c-27 -4 -33 -9 -33 -28 0 -19 6 -24 33 -28 31 -4 31 -4 -5 -5
l-38 -2 0 65 0 65 35 0 c19 0 35 -4 35 -10z m135 -17 c10 15 20 25 22 23 3 -3
-4 -18 -16 -34 -21 -30 -21 -30 -1 -55 28 -36 24 -48 -4 -13 l-24 29 -17 -27
c-10 -14 -21 -26 -26 -26 -5 0 0 14 13 30 21 29 21 31 5 59 -24 42 -21 51 7
17 l23 -30 18 27z m286 -20 l34 -48 6 50 c6 48 6 47 7 -20 l1 -70 -19 25 c-54
71 -49 69 -50 23 0 -24 -4 -43 -10 -43 -6 0 -10 28 -10 65 0 36 1 65 3 65 2 0
19 -21 38 -47z m202 16 c22 -27 22 -41 -4 -73 -14 -17 -30 -26 -50 -26 l-29 0
0 66 0 67 33 -7 c17 -3 40 -16 50 -27z m147 21 c0 -5 -13 -10 -30 -10 -23 0
-30 -4 -30 -20 0 -16 7 -20 33 -21 l32 -1 -30 -7 c-45 -9 -41 -44 5 -52 l35
-6 -42 -2 -43 -1 0 65 0 65 35 0 c19 0 35 -4 35 -10z m144 -6 c21 -20 20 -30
-3 -53 -18 -18 -18 -19 2 -40 12 -11 16 -21 9 -21 -6 0 -19 11 -28 25 -21 32
-32 32 -37 -2 -2 -16 -5 2 -6 40 -1 65 0 67 23 67 14 0 32 -7 40 -16z m227 6
c23 -13 25 -55 3 -64 -15 -6 -15 -8 1 -26 10 -11 16 -23 13 -26 -3 -3 -15 6
-26 20 -25 32 -32 33 -32 1 0 -14 -4 -25 -10 -25 -11 0 -14 113 -3 123 9 10
31 9 54 -3z m323 -40 l21 55 12 -55 c7 -30 11 -62 10 -70 -2 -8 -7 2 -11 23
-5 20 -12 37 -16 37 -4 0 -14 -17 -22 -37 l-14 -38 -21 45 -21 45 -7 -42 c-4
-24 -11 -43 -15 -43 -7 0 -2 32 16 110 5 22 8 19 26 -30 l21 -54 21 54z m113
-47 c-2 -21 -4 -6 -4 32 0 39 2 55 4 38 2 -18 2 -50 0 -70z m134 87 c23 -13
25 -55 3 -64 -15 -6 -15 -8 1 -26 10 -11 16 -23 13 -26 -3 -3 -15 6 -26 20
-25 32 -32 33 -32 1 0 -14 -4 -25 -10 -25 -11 0 -14 113 -3 123 9 10 31 9 54
-3z m159 0 c0 -5 -13 -10 -30 -10 -23 0 -30 -4 -30 -20 0 -16 7 -20 33 -22
l32 -1 -32 -4 c-27 -4 -33 -9 -33 -28 0 -19 6 -24 33 -28 31 -4 31 -4 -5 -5
l-38 -2 0 65 0 65 35 0 c19 0 35 -4 35 -10z m160 5 c0 -3 -16 -29 -35 -58
l-35 -52 37 -6 c38 -6 38 -6 -9 -8 -27 0 -48 2 -48 5 0 3 14 25 30 49 17 24
30 46 30 49 0 3 -13 6 -30 6 -16 0 -30 5 -30 10 0 6 20 10 45 10 25 0 45 -2
45 -5z m-1732 -58 c23 -54 29 -85 11 -54 -6 10 -22 17 -39 17 -17 0 -33 -7
-39 -17 -18 -31 -12 0 11 54 12 29 25 53 28 53 3 0 16 -24 28 -53z m1000 0
c23 -54 29 -85 11 -54 -6 10 -22 17 -39 17 -17 0 -33 -7 -39 -17 -18 -31 -12
0 11 54 12 29 25 53 28 53 3 0 16 -24 28 -53z"/>
<path d="M2236 2840 c-26 -77 -46 -150 -44 -162 3 -21 9 -23 66 -26 l64 -3 -6
53 c-3 29 -8 104 -12 166 -4 61 -10 112 -13 112 -4 0 -28 -63 -55 -140z"/>
<path d="M2715 3033 c-39 -10 -45 -31 -45 -170 0 -157 -8 -148 125 -148 143 1
195 40 195 150 0 74 -26 121 -80 146 -36 17 -160 31 -195 22z"/>
<path d="M1366 1635 c-10 -26 -7 -35 9 -35 17 0 19 18 6 38 -7 11 -10 10 -15
-3z"/>
<path d="M2230 1610 c0 -53 3 -56 44 -40 20 7 26 17 26 38 0 34 -16 52 -47 52
-21 0 -23 -4 -23 -50z"/>
<path d="M2540 1634 c0 -21 4 -25 23 -22 14 2 23 11 25 26 3 18 -1 22 -22 22
-21 0 -26 -5 -26 -26z"/>
<path d="M2780 1634 c0 -21 4 -25 23 -22 14 2 23 11 25 26 3 18 -1 22 -22 22
-21 0 -26 -5 -26 -26z"/>
<path d="M3350 1634 c0 -21 4 -25 23 -22 14 2 23 11 25 26 3 18 -1 22 -22 22
-21 0 -26 -5 -26 -26z"/>
<path d="M1936 1624 c-9 -23 -8 -24 14 -24 11 0 20 2 20 4 0 12 -13 36 -20 36
-4 0 -11 -7 -14 -16z"/>
<path d="M2936 1624 c-9 -23 -8 -24 14 -24 11 0 20 2 20 4 0 12 -13 36 -20 36
-4 0 -11 -7 -14 -16z"/>
</g>
</svg>
